HIERARCHY
ROOT hip
{
	OFFSET 0.000000 0.000000 0.000000
	CHANNELS 6 Xposition Yposition Zposition Xrotation Zrotation Yrotation 
	JOINT abdomen
	{
		OFFSET 0.000000 3.422050 0.000000
		CHANNELS 3 Xrotation Zrotation Yrotation 
		JOINT chest
		{
			OFFSET 0.000000 8.486693 -0.684411
			CHANNELS 3 Xrotation Zrotation Yrotation 
			JOINT neck
			{
				OFFSET 0.000000 10.266162 -0.273764
				CHANNELS 3 Xrotation Zrotation Yrotation 
				JOINT head
				{
					OFFSET 0.000000 3.148285 0.000000
					CHANNELS 3 Xrotation Zrotation Yrotation 
					End Site
					{
						OFFSET 0.000000 3.148289 0.000000
					}
				}
			}
			JOINT lCollar
			{
				OFFSET 3.422053 6.707223 -0.821293
				CHANNELS 3 Yrotation Zrotation Xrotation 
				JOINT lShldr
				{
					OFFSET 3.285171 0.000000 0.000000
					CHANNELS 3 Zrotation Yrotation Xrotation 
					JOINT lForeArm
					{
						OFFSET 10.129278 0.000000 0.000000
						CHANNELS 3 Yrotation Zrotation Xrotation 
						JOINT lHand
						{
							OFFSET 8.486692 0.000000 0.000000
							CHANNELS 3 Zrotation Yrotation Xrotation 
							End Site
							{
								OFFSET 4.106464 0.000000 0.000000
							}
						}
					}
				}
			}
			JOINT rCollar
			{
				OFFSET -3.558935 6.707223 -0.821293
				CHANNELS 3 Yrotation Zrotation Xrotation 
				JOINT rShldr
				{
					OFFSET -3.148289 0.000000 0.000000
					CHANNELS 3 Zrotation Yrotation Xrotation 
					JOINT rForeArm
					{
						OFFSET -10.266159 0.000000 0.000000
						CHANNELS 3 Yrotation Zrotation Xrotation 
						JOINT rHand
						{
							OFFSET -8.349810 0.000000 0.000000
							CHANNELS 3 Zrotation Yrotation Xrotation 
							End Site
							{
								OFFSET -4.106464 0.000000 0.000000
							}
						}
					}
				}
			}
		}
	}
	JOINT lThigh
	{
		OFFSET 5.338403 -1.642589 1.368821
		CHANNELS 3 Xrotation Zrotation Yrotation 
		JOINT lShin
		{
			OFFSET -2.053232 -20.121670 0.000000
			CHANNELS 3 Xrotation Zrotation Yrotation 
			JOINT lFoot
			{
				OFFSET 0.000000 -19.300380 -1.231939
				CHANNELS 3 Xrotation Yrotation Zrotation 
				End Site
				{
					OFFSET 0.000000 -2.463878 4.653993
				}
			}
		}
	}
	JOINT rThigh
	{
		OFFSET -5.338403 -1.642589 1.368821
		CHANNELS 3 Xrotation Zrotation Yrotation 
		JOINT rShin
		{
			OFFSET 2.053232 -20.121670 0.000000
			CHANNELS 3 Xrotation Zrotation Yrotation 
			JOINT rFoot
			{
				OFFSET 0.000000 -19.300380 -1.231939
				CHANNELS 3 Xrotation Yrotation Zrotation 
				End Site
				{
					OFFSET 0.000000 -2.463878 4.653993
				}
			}
		}
	}
}
MOTION
Frames: 11
Frame Time: 0.049989
0.000000 43.528500 0.000000 0.000000 0.000000 0.000000 0.000000 0.000000 0.000000 0.000000 0.000000 0.000000 0.000000 0.000000 0.000000 0.000000 0.000000 0.000000 0.000000 0.000000 0.000000 0.000000 0.000000 0.000000 0.000000 0.000000 0.000000 0.000000 0.000000 0.000000 0.000000 0.000000 0.000000 0.000000 0.000000 0.000000 0.000000 0.000000 0.000000 0.000000 0.000000 0.000000 0.000000 0.000000 0.000000 0.000000 0.000000 0.000000 0.000000 0.000000 0.000000 0.000000 0.000000 0.000000 0.000000 0.000000 0.000000 0.000000 0.000000 0.000000 
-0.000000 12.899372 33.614853 -71.015778 -0.004271 -179.996964 44.921387 -0.966844 -0.723270 -32.532616 -0.279341 -0.601543 -24.006269 0.000000 0.000000 -31.344055 -0.056440 -0.000509 -7.206715 25.684292 12.255749 -0.999845 -27.000834 -60.001110 -110.671684 33.826965 -3.961645 9.230456 -6.460486 10.841601 7.440507 -25.898750 12.416446 0.999246 31.997313 -60.003036 110.468788 -33.932133 -4.030619 -23.398535 7.312604 -0.022264 -121.500404 53.754852 -41.833889 134.952209 -2.039635 -0.303272 20.189140 2.440447 4.749105 -121.502686 -53.757565 41.833523 134.951050 2.021906 0.287886 20.189367 -2.431344 -4.757825 
-0.000000 12.899372 33.546768 -71.009506 -0.004270 -179.996964 44.643639 -0.966817 -0.723361 -32.532616 -0.279341 -0.601543 -23.506834 0.000000 0.000000 -30.844414 -0.056395 -0.000568 -7.635961 25.355158 12.842686 -0.999845 -27.000834 -60.001110 -110.671677 33.826965 -3.961646 8.981257 -6.754605 11.001668 7.899872 -25.596167 13.016463 1.169833 31.719751 -59.995071 110.468788 -33.932133 -4.030621 -23.178850 7.639251 0.078405 -121.136711 53.947441 -41.576603 134.952209 -2.039635 -0.303272 20.189140 2.440447 4.749105 -121.140045 -53.951267 41.577026 134.951050 2.021906 0.287886 20.189367 -2.431344 -4.757825 
-0.000000 12.899372 33.478680 -71.009506 -0.004270 -179.996964 44.365849 -0.966791 -0.723452 -32.532616 -0.279341 -0.601543 -23.007252 0.000000 0.000000 -30.344612 -0.056349 -0.000627 -8.060515 25.021914 13.425591 -0.999846 -27.000834 -60.001110 -110.671684 33.826965 -3.961645 8.731030 -7.048089 11.163155 8.354779 -25.289118 13.612567 1.339891 31.442123 -59.988083 110.468796 -33.932137 -4.030620 -22.958361 7.965573 0.180437 -120.769836 54.139080 -41.316036 134.952209 -2.039635 -0.303272 20.189140 2.440447 4.749105 -120.774223 -54.144020 41.317223 134.951050 2.021906 0.287886 20.189367 -2.431344 -4.757825 
-0.000000 12.899373 33.410595 -71.009506 -0.004270 -179.996964 44.088039 -0.966765 -0.723543 -32.532612 -0.279341 -0.601543 -22.507540 0.000000 0.000000 -29.844687 -0.056303 -0.000685 -8.480353 24.684639 14.004440 -0.999845 -27.000834 -60.001110 -110.671684 33.826965 -3.961645 8.479761 -7.340918 11.326064 8.805190 -24.977686 14.204724 1.509427 31.164454 -59.982086 110.468788 -33.932133 -4.030618 -22.737078 8.291563 0.283837 -120.399704 54.329735 -41.052116 134.952209 -2.039635 -0.303272 20.189140 2.440447 4.749105 -120.405144 -54.335800 41.054073 134.951050 2.021906 0.287886 20.189367 -2.431344 -4.757825 
-0.000000 12.899373 33.342510 -71.009506 -0.004270 -179.996964 43.810219 -0.966740 -0.723635 -32.532616 -0.279341 -0.601543 -22.007706 0.000000 0.000000 -29.344645 -0.056256 -0.000743 -8.895461 24.343422 14.579226 -0.999844 -27.000832 -60.001102 -110.671684 33.826965 -3.961645 8.227448 -7.633079 11.490402 9.251070 -24.661953 14.792899 1.678450 30.886738 -59.977058 110.468788 -33.932133 -4.030619 -22.514971 8.617195 0.388613 -120.026352 54.519409 -40.784847 134.952209 -2.039635 -0.303272 20.189140 2.440447 4.749105 -120.032806 -54.526615 40.787563 134.951050 2.021906 0.287886 20.189367 -2.431344 -4.757825 
-0.000000 12.899373 33.274426 -71.009506 -0.004270 -179.996964 43.532372 -0.966715 -0.723726 -32.532623 -0.279341 -0.601543 -21.507782 0.000000 0.000000 -28.844511 -0.056209 -0.000800 -9.305817 23.998331 15.149930 -0.999846 -27.000834 -60.001114 -110.671684 33.826965 -3.961645 7.974081 -7.924555 11.656174 9.692386 -24.341990 15.377065 1.846973 30.608997 -59.973003 110.468788 -33.932133 -4.030619 -22.292053 8.942470 0.494770 -119.649673 54.708046 -40.514160 134.952209 -2.039635 -0.303272 20.189140 2.440447 4.749106 -119.657143 -54.716412 40.517628 134.951050 2.021906 0.287886 20.189367 -2.431344 -4.757825 
-0.000000 12.899373 33.206337 -71.009506 -0.004270 -179.996964 43.254520 -0.966690 -0.723818 -32.532616 -0.279341 -0.601543 -21.007782 0.000000 0.000000 -28.344290 -0.056161 -0.000857 -9.711408 23.649452 15.716542 -0.999845 -27.000834 -60.001110 -110.671684 33.826965 -3.961645 7.719654 -8.215329 11.823381 10.129107 -24.017876 15.957191 2.015005 30.331228 -59.969910 110.468788 -33.932133 -4.030619 -22.068293 9.267360 0.602317 -119.269669 54.895683 -40.240051 134.952209 -2.039635 -0.303272 20.189140 2.440447 4.749105 -119.278160 -54.905170 40.244255 134.951050 2.021906 0.287886 20.189367 -2.431344 -4.757825 
-0.000000 12.899374 33.138252 -71.009506 -0.004270 -179.996964 42.976662 -0.966666 -0.723910 -32.532616 -0.279341 -0.601543 -20.507725 0.000000 0.000000 -27.844027 -0.056112 -0.000914 -10.112222 23.296864 16.279055 -0.999845 -27.000834 -60.001110 -110.671684 33.826965 -3.961645 7.464161 -8.505383 11.992028 10.561209 -23.689699 16.533255 2.182555 30.053423 -59.967735 110.468788 -33.932133 -4.030619 -21.843685 9.591856 0.711258 -118.886345 55.082287 -39.962502 134.952209 -2.039635 -0.303272 20.189138 2.440447 4.749105 -118.895821 -55.092915 39.967415 134.951050 2.021906 0.287886 20.189367 -2.431344 -4.757825 
-0.000000 12.899374 33.070168 -71.009506 -0.004270 -179.996964 42.698788 -0.966642 -0.724002 -32.532612 -0.279341 -0.601543 -20.007627 0.000000 0.000000 -27.343702 -0.056063 -0.000970 -10.508253 22.940655 16.837465 -0.999845 -27.000834 -60.001110 -110.671684 33.826965 -3.961645 7.207600 -8.794708 12.162126 10.988667 -23.357534 17.105240 2.349626 29.775623 -59.966541 110.468781 -33.932133 -4.030620 -21.618219 9.915943 0.821602 -118.499603 55.267776 -39.681435 134.952209 -2.039635 -0.303272 20.189140 2.440447 4.749105 -118.510071 -55.279583 39.687069 134.951050 2.021906 0.287886 20.189365 -2.431344 -4.757825 
0.000000 12.899374 33.002083 -71.009506 -0.004270 -179.996964 42.420914 -0.966619 -0.724094 -32.532616 -0.279341 -0.601543 -19.507507 0.000000 0.000000 -26.843378 -0.056014 -0.001025 -10.899492 22.580902 17.391768 -0.999846 -27.000834 -60.001110 -110.671684 33.826965 -3.961645 6.949956 -9.083280 12.333669 11.411462 -23.021469 17.673124 2.516239 29.497814 -59.966267 110.468788 -33.932133 -4.030619 -21.391899 10.239611 0.933354 -118.109467 55.452213 -39.396870 134.952209 -2.039635 -0.303272 20.189140 2.440447 4.749105 -118.120895 -55.465164 39.403183 134.951050 2.021906 0.287886 20.189367 -2.431344 -4.757825 
